<svg width="21" height="15" viewBox="0 0 21 15" fill="none" xmlns="http://www.w3.org/2000/svg">
<path d="M20.8731 6.5832C18.896 2.65666 14.9818 0 10.5 0C6.01816 0 2.1029 2.65852 0.126855 6.58357C0.0434537 6.7515 0 6.93702 0 7.12519C0 7.31335 0.0434537 7.49887 0.126855 7.6668C2.10399 11.5933 6.01816 14.25 10.5 14.25C14.9818 14.25 18.8971 11.5915 20.8731 7.66643C20.9565 7.4985 21 7.31298 21 7.12481C21 6.93665 20.9565 6.75113 20.8731 6.5832ZM10.5 12.4688C9.46163 12.4688 8.4466 12.1553 7.58324 11.5682C6.71988 10.981 6.04697 10.1464 5.64961 9.16996C5.25225 8.19352 5.14829 7.11907 5.35086 6.08249C5.55343 5.0459 6.05344 4.09373 6.78767 3.3464C7.5219 2.59906 8.45736 2.09012 9.47576 1.88393C10.4942 1.67774 11.5498 1.78356 12.5091 2.18802C13.4684 2.59247 14.2883 3.2774 14.8652 4.15617C15.4421 5.03495 15.75 6.06811 15.75 7.125C15.7503 7.82685 15.6148 8.52188 15.351 9.17037C15.0873 9.81886 14.7006 10.4081 14.213 10.9044C13.7255 11.4006 13.1466 11.7942 12.5095 12.0627C11.8724 12.3311 11.1895 12.4691 10.5 12.4688ZM10.5 3.5625C10.1876 3.56694 9.8772 3.61425 9.57722 3.70314C9.82449 4.04517 9.94315 4.46607 9.91168 4.88951C9.8802 5.31295 9.70069 5.71089 9.40568 6.01116C9.11068 6.31143 8.71972 6.49416 8.30371 6.52619C7.8877 6.55822 7.47418 6.43744 7.13816 6.18576C6.94681 6.9033 6.98135 7.66386 7.23692 8.36037C7.49248 9.05689 7.9562 9.65429 8.56281 10.0685C9.16941 10.4827 9.88836 10.6929 10.6185 10.6694C11.3486 10.6459 12.053 10.39 12.6327 9.93763C13.2125 9.48528 13.6382 8.85927 13.8501 8.14773C14.0619 7.43619 14.0492 6.67493 13.8138 5.97111C13.5783 5.26729 13.132 4.65635 12.5375 4.22428C11.943 3.7922 11.2304 3.56075 10.5 3.5625Z" fill="black" fill-opacity="0.2"/>
</svg>
